<svg width="885" height="126" viewBox="0 0 885 126" fill="none" xmlns="http://www.w3.org/2000/svg">
<path d="M98.8265 125.166H0.285767V0.819336H98.8265L78.7438 23.6075H23.6983V52.431H78.7438L124.632 0.819336H153.248L98.8265 62.9406L153.248 125.166H124.632L78.7438 73.5543H23.6983V102.274H78.7438L98.8265 125.166Z" fill="white"/>
<path d="M184.298 101.913V23.419H237.714V38.6005H201.391V54.6816H232.541V69.7507H201.391V86.7315H237.714V101.913H184.298Z" fill="white"/>
<path d="M269.699 101.913H252.606V23.419H289.829C293.427 23.419 296.689 24.0187 299.612 25.2182C302.536 26.4178 305.01 28.1421 307.034 30.3912C309.134 32.5653 310.746 35.1893 311.87 38.2631C312.995 41.3369 313.557 44.748 313.557 48.4966C313.557 53.8195 312.357 58.4676 309.958 62.4411C307.634 66.4145 304.073 69.3008 299.275 71.1001L314.681 101.913H295.676L281.957 73.1243H269.699V101.913ZM287.692 58.73C290.241 58.73 292.228 58.0928 293.652 56.8183C295.152 55.4688 295.901 53.5196 295.901 50.9706V46.0225C295.901 43.4735 295.152 41.5618 293.652 40.2873C292.228 38.9378 290.241 38.2631 287.692 38.2631H269.699V58.73H287.692Z" fill="white"/>
<path d="M325.345 101.913V88.3058H335.466V37.0261H325.345V23.419H362.681V37.0261H352.56V88.3058H362.681V101.913H325.345Z" fill="white"/>
<path d="M408.635 103.262C403.312 103.262 398.514 102.438 394.24 100.788C389.967 99.0641 386.331 96.5526 383.332 93.2539C380.333 89.8802 378.009 85.7194 376.36 80.7713C374.711 75.7483 373.886 69.9006 373.886 63.2282C373.886 56.6308 374.711 50.7832 376.36 45.6852C378.009 40.5122 380.333 36.2014 383.332 32.7528C386.331 29.2292 389.967 26.5677 394.24 24.7684C398.514 22.9691 403.312 22.0695 408.635 22.0695C415.907 22.0695 421.904 23.5689 426.628 26.5677C431.351 29.4916 435.137 34.1397 437.986 40.5122L423.254 48.1592C422.204 44.8605 420.555 42.2365 418.306 40.2873C416.132 38.2631 412.908 37.251 408.635 37.251C403.612 37.251 399.563 38.9003 396.489 42.199C393.491 45.4228 391.991 50.1459 391.991 56.3684V68.9635C391.991 75.186 393.491 79.9466 396.489 83.2453C399.563 86.4691 403.612 88.0809 408.635 88.0809C412.833 88.0809 416.169 86.9564 418.643 84.7073C421.192 82.3832 423.066 79.6093 424.266 76.3855L438.21 84.4823C435.287 90.48 431.426 95.1281 426.628 98.4268C421.904 101.651 415.907 103.262 408.635 103.262Z" fill="white"/>
<path d="M514.108 67.7251L503.874 80.0952V101.912H486.781V23.4176H503.874V60.7528H504.549L515.682 45.5713L533.338 23.4176H552.68L526.253 55.6924L555.042 101.912H534.912L514.108 67.7251Z" fill="white"/>
<path d="M565.083 101.912V23.4176H618.499V38.5991H582.176V54.6802H613.326V69.7493H582.176V86.7301H618.499V101.912H565.083Z" fill="white"/>
<path d="M633.391 101.912V23.4176H650.484V86.7301H680.397V101.912H633.391Z" fill="white"/>
<path d="M693.023 101.912V23.4176H710.116V86.7301H740.029V101.912H693.023Z" fill="white"/>
<path d="M752.655 101.912V23.4176H806.072V38.5991H769.748V54.6802H800.899V69.7493H769.748V86.7301H806.072V101.912H752.655Z" fill="white"/>
<path d="M840.193 101.912V71.2112L813.316 23.4176H832.434L849.302 54.6802H849.527L865.721 23.4176H884.276L857.399 71.0988V101.912H840.193Z" fill="white"/>
</svg>
